# xmcd CD database file
#
# Track frame offsets:
#	150
#	18681
#	42086
#	58656
#	83430
#	133623
#	163106
#	197887
#	244279
#	286508
#	303190
#
# Disc length: 4221 seconds
#
# Revision: 0
# Processed by: cddbd v1.5.1PL0 Copyright (c) Steve Scherf et al.
# Submitted via: CDex 1.50Beta7
#
DISCID=8d107b0b
DTITLE=Dick Heckstall-Smith - A Story Ended
DYEAR=1972
DGENRE=Jazz
TTITLE0=Future Song
TTITLE1=Crabs
TTITLE2=Moses In The Bullrushourses
TTITLE3=What The Morning Was After
TTITLE4=The Pirate's Dream
TTITLE5=Same Old Thing
TTITLE6=Moses In The Bullrushourses (Live)
TTITLE7=The Pirate's Dream (Live)
TTITLE8=No Amount Of Loving (Live)
TTITLE9=I'll Go Back To Venus (Previously Unreleased Manchild Recordings)
TTITLE10=I Can't Get It  (Previously Unreleased Manchild Recordings)
EXTD=YEAR: 1972
EXTT0=
EXTT1=
EXTT2=
EXTT3=
EXTT4=
EXTT5=
EXTT6=
EXTT7=
EXTT8=
EXTT9=
EXTT10=
PLAYORDER=
